<?xml version="1.0" encoding="utf-8"?>
<!-- Generator: Adobe Illustrator 24.1.3, SVG Export Plug-In . SVG Version: 6.00 Build 0)  -->
<svg version="1.1" id="Laag_1" xmlns="http://www.w3.org/2000/svg" xmlns:xlink="http://www.w3.org/1999/xlink" x="0px" y="0px"
	 viewBox="0 0 1666.5 400.1" style="enable-background:new 0 0 1666.5 400.1;" xml:space="preserve">
<style type="text/css">
	.st0{enable-background:new    ;}
	.st1{fill:#FFFFFF;}
	.st2{fill:#23A0C7;}
</style>
<g class="st0">
	<path class="st1" d="M113.8,217.1c-10.9,0-20.8-1.7-29.7-5c-8.9-3.4-16.2-8.5-22.2-15.3c-5.9-6.8-9.6-15-11-24.5l36.4-8.3
		c0.8,8,3.7,14.2,8.7,18.4c5,4.3,11.5,6.4,19.3,6.4c5.9,0,10.6-1.3,14.1-4s5.2-6.6,5.2-11.7c0-1.7-0.3-3.3-0.9-4.8s-1.3-2.8-2.2-3.9
		c-0.8-1.1-2.1-2.2-3.9-3.4c-1.8-1.2-3.3-2.1-4.6-2.8c-1.3-0.7-3.3-1.5-6-2.5c-2.7-1-4.8-1.7-6.2-2.2c-1.4-0.5-3.8-1.2-7.1-2.3
		c-1-0.3-1.7-0.6-2.3-0.7c-3-1-5.4-1.8-7.3-2.4c-1.9-0.7-4.2-1.5-7.1-2.6c-2.8-1.1-5.2-2.1-7-3.1s-4-2.2-6.3-3.6
		c-2.3-1.4-4.3-2.9-5.8-4.3c-1.5-1.4-3.1-3.1-4.7-5.1c-1.6-2-2.9-4-3.8-6.1c-0.9-2.1-1.7-4.5-2.3-7.2c-0.6-2.7-0.9-5.5-0.9-8.6
		c0-13.7,5-24.6,15-32.6c10-8,23-12,39-12c6.9,0,13.5,0.7,19.8,2.2c6.2,1.5,12.2,3.7,17.8,6.8c5.6,3.1,10.4,7.3,14.4,12.6
		c4,5.4,6.7,11.6,8.2,18.9l-33.8,8.3c-2.3-13.7-10.4-20.5-24.2-20.5c-6.1,0-11.1,1.3-14.9,3.9c-3.8,2.6-5.8,6.4-5.8,11.4
		c0,3,1.4,5.6,4.3,7.9c2.8,2.3,5.7,4,8.7,5.1c2.9,1.1,7.6,2.6,14.2,4.6c1.4,0.5,2.5,0.8,3.3,1c3.9,1.2,7.2,2.3,9.7,3.2
		c2.6,0.9,5.7,2.1,9.5,3.7c3.7,1.6,6.9,3.2,9.3,4.7c2.5,1.6,5.1,3.6,7.9,5.9c2.8,2.4,5,4.9,6.6,7.5c1.6,2.6,3,5.8,4.1,9.4
		c1.1,3.6,1.6,7.5,1.6,11.6c0,7.8-1.6,14.8-4.7,20.8c-3.1,6-7.4,10.9-12.8,14.5c-5.4,3.6-11.4,6.3-18.1,8.1
		C128.7,216.2,121.5,217.1,113.8,217.1z"/>
	<path class="st1" d="M261.3,105.4c13.3,0,23.5,3.2,30.4,9.7c7,6.5,10.5,15.7,10.5,27.6V215h-33.8v-65.2c0-6.1-1.6-10.6-4.9-13.4
		s-7.6-4.2-13-4.2c-3.1,0-5.9,0.4-8.5,1.2c-2.6,0.8-5,2.1-7.3,3.9c-2.3,1.8-4,4.4-5.3,7.8c-1.3,3.4-1.9,7.5-2,12.2V215h-33.6V107.4
		h33.6V119C235.5,109.9,246.8,105.4,261.3,105.4z"/>
	<path class="st1" d="M432.3,159.9l-0.4,7.9h-78.2c0.7,7.5,3.3,13.2,8,17.1c4.6,3.9,10.4,5.9,17.3,5.9c10.4,0,17.4-4.3,21-12.9
		l30.9,4.2c-3.4,11.1-9.8,19.6-19,25.8c-9.2,6.1-20.1,9.2-32.8,9.2c-18.1,0-32.5-4.9-43-14.7s-15.8-23.5-15.8-41
		c0-17.4,5.3-31.2,15.8-41.2c10.5-10,24.5-15,41.8-15c7.9,0,15.1,1.1,21.5,3.2c6.5,2.2,12.2,5.4,17.1,9.7s8.8,10,11.5,17.2
		C430.8,142.4,432.2,150.6,432.3,159.9z M378.2,128.7c-13,0-20.8,5.8-23.6,17.5h44.6c-0.9-5.6-3.2-10-7-13
		C388.4,130.2,383.8,128.7,378.2,128.7z"/>
	<path class="st1" d="M453.1,215V56.8h34V215H453.1z"/>
	<path class="st1" d="M652.5,107.4h34.6l-37.7,107.8H618l-23.5-67.4l-23.8,67.4h-31.7l-37.1-107.8h34.6l20.8,66l24.1-66h25.9
		l24,65.7L652.5,107.4z"/>
	<path class="st1" d="M800.9,159.9l-0.4,7.9h-78.2c0.7,7.5,3.3,13.2,8,17.1c4.6,3.9,10.4,5.9,17.3,5.9c10.4,0,17.4-4.3,21-12.9
		l30.9,4.2c-3.4,11.1-9.8,19.6-19,25.8c-9.2,6.1-20.1,9.2-32.8,9.2c-18.1,0-32.5-4.9-43-14.7s-15.8-23.5-15.8-41
		c0-17.4,5.3-31.2,15.8-41.2c10.5-10,24.5-15,41.8-15c7.9,0,15.1,1.1,21.5,3.2c6.5,2.2,12.2,5.4,17.1,9.7s8.8,10,11.5,17.2
		C799.5,142.4,800.9,150.6,800.9,159.9z M746.8,128.7c-13,0-20.8,5.8-23.6,17.5h44.6c-0.9-5.6-3.2-10-7-13
		C757.1,130.2,752.4,128.7,746.8,128.7z"/>
	<path class="st1" d="M886.9,105.4c7.1,0,13.9,1.3,20.1,3.9c6.3,2.6,11.8,6.2,16.6,10.9c4.8,4.7,8.5,10.6,11.3,17.7
		c2.7,7.1,4.1,15,4.1,23.7s-1.4,16.5-4.1,23.6c-2.7,7.1-6.5,13-11.3,17.7c-4.8,4.7-10.3,8.3-16.6,10.9c-6.3,2.5-13,3.8-20.1,3.8
		c-7.2,0-13.7-1.3-19.5-3.8s-10.1-6.2-13.1-10.9l-0.7,12.2h-31.8V56.8h33.6v61.8c3-4.2,7.3-7.4,13-9.7
		C873.9,106.5,880.1,105.4,886.9,105.4z M860,182.1c5,5.2,11.3,7.7,18.9,7.7c7.6,0,13.9-2.6,19-7.7c5-5.1,7.5-12,7.5-20.7
		c0-8.7-2.5-15.6-7.5-20.8c-5-5.1-11.3-7.7-19-7.7c-7.6,0-13.9,2.6-18.9,7.7c-5,5.2-7.5,12.1-7.5,20.7
		C852.5,170.1,855,177,860,182.1z"/>
</g>
<g class="st0">
	<path class="st2" d="M1009.4,217.1c-17.4,0-31.6-5.2-42.5-15.5c-10.9-10.3-16.4-23.8-16.4-40.4s5.5-30.1,16.4-40.3
		c10.9-10.3,25.1-15.4,42.5-15.4c14.4,0,26.3,3.6,35.9,10.7c9.6,7.1,15.5,17.2,17.9,30.1l-31,3.1c-2.7-11.7-10.4-17.6-23.2-17.6
		c-7.6,0-13.6,2.7-18.1,8.1c-4.5,5.4-6.8,12.5-6.8,21.3c0,8.9,2.3,16,6.8,21.4c4.5,5.4,10.6,8.1,18.1,8.1c12.8,0,20.5-5.9,23.2-17.6
		l31,3.1c-2.3,12.9-8.4,23-18.1,30.2C1035.2,213.5,1023.4,217.1,1009.4,217.1z"/>
	<path class="st2" d="M1185.9,159.9l-0.4,7.9h-78.2c0.7,7.5,3.3,13.2,8,17.1c4.6,3.9,10.4,5.9,17.3,5.9c10.4,0,17.4-4.3,21-12.9
		l30.9,4.2c-3.4,11.1-9.8,19.6-19,25.8c-9.2,6.1-20.1,9.2-32.8,9.2c-18.1,0-32.5-4.9-43-14.7s-15.8-23.5-15.8-41
		c0-17.4,5.3-31.2,15.8-41.2c10.5-10,24.5-15,41.8-15c7.9,0,15.1,1.1,21.5,3.2c6.5,2.2,12.2,5.4,17.1,9.7s8.8,10,11.5,17.2
		C1184.5,142.4,1185.9,150.6,1185.9,159.9z M1131.9,128.7c-13,0-20.8,5.8-23.6,17.5h44.6c-0.9-5.6-3.2-10-7-13
		C1142.1,130.2,1137.4,128.7,1131.9,128.7z"/>
	<path class="st2" d="M1274.2,105.4c13.3,0,23.5,3.2,30.4,9.7c7,6.5,10.5,15.7,10.5,27.6V215h-33.8v-65.2c0-6.1-1.6-10.6-4.9-13.4
		s-7.6-4.2-13-4.2c-3.1,0-5.9,0.4-8.5,1.2c-2.6,0.8-5,2.1-7.3,3.9c-2.3,1.8-4,4.4-5.3,7.8c-1.3,3.4-1.9,7.5-2,12.2V215h-33.6V107.4
		h33.6V119C1248.5,109.9,1259.8,105.4,1274.2,105.4z"/>
	<path class="st2" d="M1383.7,215c-10.9,0-19.3-3-25.2-9.1c-5.9-6.1-8.9-14.7-8.9-25.8v-47h-20.8v-25.7h6.4c6.2,0,10.8-1.5,13.9-4.6
		c3.1-3.1,4.6-8.8,4.6-17V73.2h30.2v34.2h21.3v25.7h-21.3v43.3c0,8.9,3.9,13.4,11.7,13.4h9.6V215H1383.7z"/>
	<path class="st2" d="M1530.3,159.9l-0.4,7.9h-78.2c0.7,7.5,3.3,13.2,8,17.1c4.6,3.9,10.4,5.9,17.3,5.9c10.4,0,17.4-4.3,21-12.9
		l30.9,4.2c-3.4,11.1-9.8,19.6-19,25.8c-9.2,6.1-20.1,9.2-32.8,9.2c-18.1,0-32.5-4.9-43-14.7s-15.8-23.5-15.8-41
		c0-17.4,5.3-31.2,15.8-41.2c10.5-10,24.5-15,41.8-15c7.9,0,15.1,1.1,21.5,3.2c6.5,2.2,12.2,5.4,17.1,9.7s8.8,10,11.5,17.2
		C1528.8,142.4,1530.2,150.6,1530.3,159.9z M1476.2,128.7c-13,0-20.8,5.8-23.6,17.5h44.6c-0.9-5.6-3.2-10-7-13
		C1486.4,130.2,1481.7,128.7,1476.2,128.7z"/>
	<path class="st2" d="M1583.2,124c2.9-4.7,7.6-8.9,14.3-12.4c6.6-3.5,13.7-5.3,21.2-5.4V136c-12.1,0-20.7,2-25.9,6
		c-5.2,4-7.7,11.4-7.7,22.2V215h-34V107.4h32.1V124z"/>
</g>
<g class="st0">
	<path class="st1" d="M981.7,281.8h11.9V338h-11.3l-0.3-4.3c-1,1.7-2.6,2.9-4.6,3.8c-2.1,0.9-4.4,1.4-6.9,1.4
		c-2.5,0-4.9-0.5-7.2-1.4c-2.2-0.9-4.2-2.2-5.9-3.9s-3-3.8-4-6.3c-1-2.5-1.5-5.3-1.5-8.4s0.5-5.9,1.5-8.4c1-2.5,2.3-4.6,4-6.3
		c1.7-1.7,3.7-2.9,5.9-3.9c2.2-0.9,4.6-1.4,7.2-1.4c2.4,0,4.6,0.4,6.6,1.2c2,0.8,3.5,2,4.6,3.4V281.8z M966.6,326.4
		c1.8,1.8,4,2.7,6.7,2.7s4.9-0.9,6.7-2.7c1.8-1.8,2.7-4.3,2.7-7.3c0-3.1-0.9-5.5-2.7-7.4c-1.8-1.8-4-2.7-6.7-2.7s-5,0.9-6.7,2.7
		c-1.8,1.8-2.7,4.3-2.7,7.4S964.8,324.5,966.6,326.4z"/>
	<path class="st1" d="M1040.6,318.4l-0.1,2.8h-27.8c0.2,2.7,1.2,4.7,2.8,6.1c1.6,1.4,3.7,2.1,6.1,2.1c3.7,0,6.2-1.5,7.5-4.6l11,1.5
		c-1.2,3.9-3.5,7-6.7,9.2c-3.3,2.2-7.2,3.3-11.6,3.3c-6.4,0-11.5-1.7-15.3-5.2s-5.6-8.3-5.6-14.6c0-6.2,1.9-11.1,5.6-14.6
		c3.7-3.6,8.7-5.3,14.8-5.3c2.8,0,5.4,0.4,7.7,1.2c2.3,0.8,4.3,1.9,6.1,3.5s3.1,3.6,4.1,6.1C1040.1,312.2,1040.6,315.1,1040.6,318.4
		z M1021.4,307.3c-4.6,0-7.4,2.1-8.4,6.2h15.9c-0.3-2-1.1-3.5-2.5-4.6S1023.3,307.3,1021.4,307.3z"/>
	<path class="st1" d="M1061.8,338.7c-4.6,0-8.4-0.9-11.4-2.7c-3-1.8-4.9-4.4-5.6-8l9.9-2.8c1.1,3.5,3.5,5.2,7.1,5.2
		c1.3,0,2.5-0.2,3.4-0.7c0.9-0.5,1.4-1.3,1.3-2.4c0-0.7-0.2-1.4-0.7-1.9c-0.5-0.5-1.1-1-2-1.3s-1.8-0.7-2.7-0.9
		c-0.9-0.3-2.1-0.6-3.4-1c-1.4-0.4-2.6-0.8-3.6-1.2c-1.2-0.5-2.3-1-3.2-1.5c-0.9-0.5-1.8-1.2-2.6-2c-0.9-0.8-1.5-1.8-2-3
		c-0.5-1.2-0.7-2.5-0.7-4c0-3.8,1.4-6.7,4.2-8.7c2.8-2,6.6-2.9,11.2-2.9c4.1,0,7.5,0.8,10.3,2.4c2.8,1.6,4.5,4.2,5.2,7.7l-9.2,2
		c-1.1-2.9-3.2-4.4-6.3-4.4c-1.4,0-2.5,0.2-3.3,0.7s-1.3,1.1-1.3,2c0,0.4,0.1,0.7,0.2,1c0.2,0.3,0.4,0.6,0.8,0.8
		c0.4,0.2,0.7,0.5,1.1,0.6c0.4,0.2,0.9,0.4,1.5,0.5c0.6,0.2,1.2,0.3,1.7,0.5s1.1,0.3,1.9,0.5c0.8,0.2,1.5,0.4,2,0.5
		c1.3,0.4,2.5,0.7,3.6,1.1s2.1,0.9,3.3,1.6s2.1,1.4,2.9,2.3c0.7,0.8,1.4,1.9,1.9,3.2c0.5,1.3,0.8,2.7,0.8,4.3c0,2.2-0.4,4.1-1.3,5.7
		c-0.9,1.6-2.1,2.9-3.6,3.8c-1.6,0.9-3.3,1.6-5.1,2S1064.1,338.7,1061.8,338.7z"/>
	<path class="st1" d="M1091,295.1c-1.9,0-3.4-0.6-4.8-1.9c-1.3-1.3-2-2.9-2-4.7c0-1.8,0.7-3.4,2-4.7s2.9-1.9,4.8-1.9
		c1.8,0,3.4,0.6,4.7,1.9c1.3,1.3,2,2.9,2,4.7s-0.7,3.4-2,4.7C1094.3,294.4,1092.8,295.1,1091,295.1z M1084.9,338v-38.2h12V338
		H1084.9z"/>
	<path class="st1" d="M1133,299.8h11.4v35.1c0,14.1-6.9,21.1-20.8,21.1c-10.4,0-17-4-20.1-11.9l9.9-4.1c1.1,2.4,2.4,4.1,3.9,5.2
		c1.5,1.1,3.4,1.6,5.8,1.6c6.2,0,9.3-3.7,9.3-11V332c-1.1,1.4-2.7,2.5-4.6,3.3c-2,0.8-4.1,1.3-6.4,1.3c-3.1,0-6-0.8-8.7-2.3
		c-2.6-1.5-4.7-3.7-6.3-6.6c-1.6-2.9-2.4-6.2-2.4-10c0-2.8,0.5-5.4,1.4-7.7c0.9-2.4,2.2-4.3,3.8-5.9c1.6-1.6,3.5-2.8,5.6-3.7
		s4.4-1.3,6.7-1.3c2.5,0,4.8,0.5,6.8,1.4s3.5,2.2,4.5,3.8L1133,299.8z M1124.5,327c2.6,0,4.7-0.9,6.5-2.7c1.7-1.8,2.6-4,2.6-6.6
		s-0.9-4.8-2.6-6.6c-1.7-1.8-3.9-2.7-6.5-2.7s-4.8,0.9-6.5,2.6c-1.7,1.8-2.6,4-2.6,6.6s0.9,4.9,2.6,6.6
		C1119.8,326.1,1121.9,327,1124.5,327z"/>
	<path class="st1" d="M1178.7,299c4.7,0,8.3,1.1,10.8,3.4c2.5,2.3,3.7,5.6,3.7,9.8V338h-12v-23.2c0-2.2-0.6-3.8-1.8-4.8
		s-2.7-1.5-4.6-1.5c-1.1,0-2.1,0.1-3,0.4c-0.9,0.3-1.8,0.7-2.6,1.4c-0.8,0.6-1.4,1.6-1.9,2.8c-0.5,1.2-0.7,2.7-0.7,4.3V338h-11.9
		v-38.2h11.9v4.1C1169.5,300.6,1173.5,299,1178.7,299z"/>
	<path class="st1" d="M1224.8,349.2v-67.5h7.4v67.5H1224.8z"/>
	<path class="st1" d="M1313,299.8h12.3l-13.4,38.3h-11.2l-8.3-24l-8.5,24h-11.3l-13.2-38.3h12.3l7.4,23.5l8.6-23.5h9.2l8.5,23.4
		L1313,299.8z"/>
	<path class="st1" d="M1365.8,318.4l-0.1,2.8h-27.8c0.2,2.7,1.2,4.7,2.8,6.1c1.6,1.4,3.7,2.1,6.1,2.1c3.7,0,6.2-1.5,7.5-4.6l11,1.5
		c-1.2,3.9-3.5,7-6.7,9.2c-3.3,2.2-7.2,3.3-11.6,3.3c-6.4,0-11.5-1.7-15.3-5.2s-5.6-8.3-5.6-14.6c0-6.2,1.9-11.1,5.6-14.6
		c3.7-3.6,8.7-5.3,14.8-5.3c2.8,0,5.4,0.4,7.7,1.2c2.3,0.8,4.3,1.9,6.1,3.5s3.1,3.6,4.1,6.1C1365.2,312.2,1365.7,315.1,1365.8,318.4
		z M1346.5,307.3c-4.6,0-7.4,2.1-8.4,6.2h15.9c-0.3-2-1.1-3.5-2.5-4.6S1348.5,307.3,1346.5,307.3z"/>
	<path class="st1" d="M1396.3,299c2.5,0,4.9,0.5,7.2,1.4c2.2,0.9,4.2,2.2,5.9,3.9c1.7,1.7,3,3.8,4,6.3c1,2.5,1.5,5.3,1.5,8.4
		s-0.5,5.9-1.5,8.4c-1,2.5-2.3,4.6-4,6.3c-1.7,1.7-3.7,3-5.9,3.9c-2.2,0.9-4.6,1.4-7.2,1.4c-2.6,0-4.9-0.5-6.9-1.4s-3.6-2.2-4.7-3.9
		l-0.3,4.3h-11.3v-56.2h11.9v22c1.1-1.5,2.6-2.6,4.6-3.5C1391.7,299.4,1393.9,299,1396.3,299z M1386.8,326.3c1.8,1.8,4,2.7,6.7,2.7
		c2.7,0,5-0.9,6.7-2.7c1.8-1.8,2.7-4.3,2.7-7.3c0-3.1-0.9-5.6-2.7-7.4c-1.8-1.8-4-2.7-6.7-2.7c-2.7,0-4.9,0.9-6.7,2.7
		s-2.7,4.3-2.7,7.4C1384.1,322,1385,324.5,1386.8,326.3z"/>
	<path class="st1" d="M1444.1,349.2v-67.5h7.4v67.5H1444.1z"/>
	<path class="st1" d="M1516.3,328c0,3.9,0.3,6.9,0.9,8.9v1.1h-11l-0.8-4.1c-1.3,1.6-3.1,2.8-5.3,3.6c-2.2,0.8-4.5,1.2-6.9,1.2
		c-1.2,0-2.4-0.1-3.5-0.3c-1.1-0.2-2.2-0.6-3.2-1.1c-1-0.5-2-1.2-2.7-2c-0.8-0.8-1.4-1.8-1.8-3c-0.5-1.2-0.7-2.6-0.7-4.2
		s0.2-3,0.7-4.2c0.5-1.2,1.1-2.3,1.9-3.1c0.8-0.8,1.8-1.6,3-2.3c1.2-0.7,2.5-1.2,3.8-1.6c1.3-0.4,2.8-0.8,4.5-1.2l6.2-1.5
		c1.4-0.3,2.4-0.7,2.9-1.2c0.6-0.5,0.8-1.1,0.8-1.9c0-1-0.3-1.8-1-2.4c-0.6-0.6-1.4-1-2.2-1.2s-1.7-0.3-2.7-0.3
		c-4.1,0-6.4,1.8-7,5.5l-10.5-1.8c0.9-4.1,2.8-7,5.7-8.9s7.2-2.8,12.5-2.8c1.7,0,3.3,0.1,4.7,0.3s2.9,0.6,4.4,1.2
		c1.5,0.6,2.8,1.4,3.8,2.4c1,1,1.9,2.3,2.6,4c0.7,1.7,1,3.7,1,6V328z M1496.9,330.8c2.3,0,4.4-0.8,6.1-2.5c1.7-1.7,2.6-4.1,2.6-7.3
		l-8.8,2.7c-1.4,0.4-2.4,0.8-3.1,1.4c-0.7,0.5-1.1,1.3-1.1,2.3c0,1.1,0.4,2,1.2,2.6S1495.6,330.8,1496.9,330.8z"/>
	<path class="st1" d="M1549,299c2.5,0,4.9,0.5,7.2,1.4c2.2,0.9,4.2,2.2,5.9,3.9c1.7,1.7,3,3.8,4,6.3c1,2.5,1.5,5.3,1.5,8.4
		s-0.5,5.9-1.5,8.4c-1,2.5-2.3,4.6-4,6.3c-1.7,1.7-3.7,2.9-5.9,3.8c-2.2,0.9-4.6,1.4-7.2,1.4c-2.4,0-4.6-0.4-6.6-1.2
		c-2-0.8-3.5-2-4.6-3.5v22.2h-11.9v-56.6h11.3l0.3,4.5c1-1.7,2.6-2.9,4.6-3.8S1546.4,299,1549,299z M1539.5,326.3
		c1.8,1.8,4,2.7,6.7,2.7s4.9-0.9,6.7-2.7s2.6-4.3,2.6-7.4s-0.9-5.6-2.7-7.4c-1.8-1.8-4-2.7-6.7-2.7c-2.7,0-5,0.9-6.7,2.7
		s-2.7,4.3-2.7,7.4C1536.8,322,1537.7,324.5,1539.5,326.3z"/>
	<path class="st1" d="M1597.9,299c2.5,0,4.9,0.5,7.2,1.4c2.2,0.9,4.2,2.2,5.9,3.9c1.7,1.7,3,3.8,4,6.3c1,2.5,1.5,5.3,1.5,8.4
		s-0.5,5.9-1.5,8.4c-1,2.5-2.3,4.6-4,6.3c-1.7,1.7-3.7,2.9-5.9,3.8c-2.2,0.9-4.6,1.4-7.2,1.4c-2.4,0-4.6-0.4-6.6-1.2
		c-2-0.8-3.5-2-4.6-3.5v22.2h-11.9v-56.6h11.3l0.3,4.5c1-1.7,2.6-2.9,4.6-3.8S1595.4,299,1597.9,299z M1588.4,326.3
		c1.8,1.8,4,2.7,6.7,2.7s4.9-0.9,6.7-2.7s2.6-4.3,2.6-7.4s-0.9-5.6-2.7-7.4c-1.8-1.8-4-2.7-6.7-2.7c-2.7,0-5,0.9-6.7,2.7
		s-2.7,4.3-2.7,7.4C1585.7,322,1586.6,324.5,1588.4,326.3z"/>
</g>
</svg>
